<svg xmlns="http://www.w3.org/2000/svg" viewBox="0 0 702 865" width="702" height="865">
	<defs>
		<clipPath clipPathUnits="userSpaceOnUse" id="cp1">
			<path d="M0 0L702 0L702 865L0 865Z" />
		</clipPath>
	</defs>
	<style>
		tspan { white-space:pre }
		.shp0 { fill: #4e5056 } 
		.shp1 { fill: #2c2e35 } 
		.shp2 { fill: #ffffff } 
		.shp3 { fill: none;stroke: #ffffff;stroke-linecap:round;stroke-width: 7.221 } 
		.shp4 { fill: #ffffff;stroke: #ffffff;stroke-linecap:round;stroke-width: 5.825 } 
		.shp5 { fill: #ffffff;stroke: #ffffff;stroke-linecap:round;stroke-width: 3.92 } 
		.shp6 { fill: #ffffff;stroke: #ffffff;stroke-linecap:round;stroke-width: 7.504 } 
		.shp7 { fill: #ffffff;stroke: #ffffff;stroke-linecap:round;stroke-width: 3.66 } 
	</style>
	<g id="Page 1" clip-path="url(#cp1)">
		<path id="Path 1" class="shp0" d="M295.96 621.65C295.28 617.6 294.78 612.92 293.51 608.45C293.2 607.36 290.3 606.32 288.66 606.41C261.7 607.83 236.39 601.68 212.64 589.36C196.63 581.06 185.17 568.3 179.14 551.01C176.05 542.14 176.56 533.2 177.87 524.11C178.14 522.23 177.12 519.47 175.72 518.14C164.4 507.32 152.84 496.76 140.54 485.36C136.94 487.61 132.27 490.35 127.79 493.37C117.45 500.36 107.22 507.52 96.89 514.54C94.71 516.02 92.42 517.45 89.99 518.4C88.72 518.9 87.01 518.3 85.51 518.2C85.91 516.69 85.81 514.58 86.79 513.77C93.02 508.57 99.26 503.33 105.94 498.74C115.74 492 125.91 485.78 136.31 479.1C131.41 470.85 126.63 462.82 121.47 454.15C112.18 459.86 102.89 465.52 93.65 471.27C86.58 475.67 79.71 480.39 72.49 484.51C70.69 485.54 67.88 484.8 65.54 484.87C66.53 482.98 67.04 480.36 68.61 479.29C83.75 468.94 99.01 458.76 114.39 448.78C117.22 446.94 118.48 445.36 117.29 442.02C116.22 439 115.14 435.86 114.86 432.7C114.04 423.25 108.52 419.82 99.72 417.75C67.25 410.1 35.98 398.69 5.12 386.1C-0.43 383.83 -0.97 380.02 1.14 375.65C8.79 359.86 16.04 343.82 24.8 328.65C38.13 305.53 56.32 286.13 76.16 268.53C87.28 258.68 95.68 247.3 103.06 234.59C119.03 207.12 136.3 180.46 157.84 156.89C185.05 127.11 216.7 103.34 253.13 85.73C312.26 57.15 375 43.59 440.09 38.71C448.82 38.05 457.27 33.47 465.81 30.6C490.33 22.34 514.65 13.37 539.45 6.02C550.51 2.74 562.54 2.65 574.13 1.18C580.33 0.39 584.07 3.37 586.32 9.01C591.67 22.42 593.17 36.47 593.54 50.7C594.46 86.91 589.13 122.28 579.31 157.08C578.67 159.32 579.49 162.65 580.85 164.65C583.47 168.52 586.96 171.8 590.45 175.73C608.95 164.21 625.46 148.98 646.6 139.94C647.85 145.85 644.71 147.98 641.64 150.12C626.9 160.38 612.14 170.62 597.39 180.89C596.63 181.42 595.97 182.1 594.85 183.09C599.68 192.68 604.51 202.26 609.75 212.65C613.79 210.44 617.43 208.19 621.29 206.39C634.64 200.16 648.08 194.12 661.45 187.92C664.37 186.56 666.97 186.7 667.67 189.96C667.93 191.11 665.65 193.47 664.03 194.28C646.99 202.86 629.84 211.23 612.28 219.87C619.23 237.6 619.86 255.6 621.92 273.37C622.01 274.11 628.58 289.46 628.96 290.09C640.65 309.6 643.7 317.5 641.28 338.81C639.24 356.79 625.59 373.58 622.1 391.36C620.42 399.88 618.22 408.34 615.59 416.61C613.9 421.93 615.83 424.45 620.22 426.84C635.59 435.23 649.24 445.87 661.07 458.83C691.57 492.22 704.14 531.85 699.64 576.35C693.71 634.82 669.52 685.09 625.86 724.69C611.44 737.76 593.84 747.38 577.41 758.15C570.33 762.8 562.63 766.56 555 770.31C550.42 772.57 549.11 775.25 550.8 780.22C555.66 794.54 560.19 808.97 564.71 823.4C567.48 832.19 568.71 841.1 565.59 850.12C562.51 859.02 547.32 867.03 538.24 864.54C520.79 859.74 513.59 850.79 512.35 832.62C511.4 818.74 508.4 805.36 502.56 792.63C499.86 786.75 495.78 783.87 489.25 784.39C481.15 785.04 473.05 785.77 464.94 786C445.45 786.56 426.53 782.91 408 777.29C394.06 773.07 380.26 768.41 366.49 763.66C361.01 761.77 356 761.21 350.74 764.28C343.87 768.27 336.48 768.28 329.43 765.06C319.66 760.61 309.65 756.37 300.66 750.61C285.27 740.73 270.4 729.99 255.66 719.14C240.77 708.18 236.96 692.33 239.56 675.16C240.98 665.8 243.89 656.11 248.5 647.9C258.54 630.02 276.16 624.25 295.96 621.65Z" />
		<path id="Path 2" fill-rule="evenodd" class="shp1" d="M551.52 124.31C531.68 111.16 511.89 98.06 492.67 85.32C512.74 70.4 533.09 55.27 553.33 40.23C559.2 67.88 555.21 96.25 551.52 124.31ZM297.94 694.14C292.65 692.29 289.53 684.17 291.67 677.79C293.87 671.21 300.77 667.32 306.74 669.3C312.9 671.34 315.32 677.81 312.67 685.23C310.13 692.38 303.83 696.19 297.94 694.14ZM623.3 570.19C619.81 579.52 605.64 586.56 596.79 583.35C586.36 579.57 580.92 567.52 584.82 556.81C588.75 546.01 601.36 539.68 611.43 543.47C621.66 547.31 627.19 559.76 623.3 570.19ZM609.06 550.95C603.78 548.59 595.93 551.82 593.28 557.42C590.52 563.27 593.53 571.9 599.22 574.47C605.08 577.11 612.62 573.8 615.61 567.28C618.05 561.95 614.64 553.43 609.06 550.95ZM230.47 551.35C221.21 548.11 216.68 538.22 220.12 528.77C223.4 519.79 232.91 515.46 242.36 518.65C251.36 521.69 256.39 532.13 253.22 541.23C250.58 548.85 238.58 554.19 230.47 551.35ZM226.84 531.54C224.83 536.67 227.49 542.73 232.6 544.63C237.45 546.45 243.63 543.57 245.69 538.52C247.68 533.66 244.96 526.91 240.29 525.11C235.26 523.17 228.92 526.2 226.84 531.54ZM227.08 562.92C225.24 566.68 222.03 567.97 217.86 566.6C213.98 565.32 212.38 561.32 213.95 557.37C215.56 553.31 219.94 551.08 223.49 552.52C227.02 553.96 228.76 558.7 227.08 562.92ZM559.79 321.91C557.66 326.46 554.7 329.32 550.31 328.06C545.87 326.78 544.93 322.79 546.23 317.75C547.41 313.14 552.82 309.41 556.15 310.91C560.16 312.72 560.98 316.74 559.79 321.91ZM562.03 294.61C563.78 289.6 568.04 286.96 571.76 288.39C575.41 289.78 577.27 294.87 575.34 299.2C573.23 303.97 569.85 306.57 565.59 305.17C561.1 303.68 560.93 299.3 562.03 294.61ZM210.29 535.5C213.81 537.46 215.58 540.26 213.88 544.28C212.26 548.1 209.25 549.72 205.25 548.21C201.13 546.66 200.26 543.36 201.65 539.5C203.12 535.41 206.22 534.39 210.29 535.5ZM577.48 565.24C575 572.69 569.35 576.65 564.92 574.5C560.4 572.31 558.74 567.8 560.59 561.98C562.53 555.87 566.34 552.35 571.85 554.08C577.02 555.7 578.96 559.96 577.48 565.24ZM273.98 684.85C274.71 687.37 276.64 690.51 276.12 693.19C275.39 697.05 271.88 699.01 267.76 697.72C263.78 696.48 262.68 693.08 263.79 689.51C265.02 685.6 268.29 684.24 273.98 684.85ZM577.65 532.94C584.2 530.28 588.42 527.03 591.89 527.49C597.42 528.24 598.78 534.08 596.44 540.02C594.19 545.74 589.36 549.75 584.7 546.9C581.76 545.09 580.8 539.54 577.65 532.94ZM619.86 518.4C624.88 520.61 626.2 525.09 624.15 530.82C621.93 536.98 617.59 539.82 612.41 537.81C607.4 535.86 606.7 530.91 608.85 525.2C611.05 519.33 614.84 516.98 619.86 518.4ZM598.58 296.61C593.54 298.76 590.45 301.03 587.6 301.05C584.35 301.07 582.75 294.73 584.66 290.82C586.66 286.74 590.05 283.7 593.33 285.91C595.54 287.4 596.25 291.58 598.58 296.61ZM307.28 653.52C305.14 654.2 302.03 656.3 299.43 655.79C295.01 654.93 294.81 650.72 296.01 647.1C297.22 643.45 300.47 642.5 303.84 643.56C307.81 644.82 308.42 648.08 307.28 653.52ZM264.65 668.78C269.56 667.24 272.6 665.26 275.23 665.7C279.29 666.39 279.9 670.34 278.75 673.8C277.53 677.44 274.14 679.58 270.8 677.85C268.5 676.65 267.43 673.08 264.65 668.78ZM217.41 522.23C215.78 526 213.11 527.94 209.31 526.44C205.52 524.94 204.84 521.66 206.19 518.01C207.51 514.41 210.37 513.04 213.81 514.14C217.8 515.41 218.28 518.73 217.41 522.23ZM237.03 509.22C232.42 510.85 229.56 512.91 227.09 512.51C223.24 511.88 221.4 508.02 223.41 504.74C224.69 502.66 228.63 500.74 230.91 501.18C232.91 501.57 234.25 505.35 237.03 509.22ZM645.37 537.35C645.95 541.5 648.18 546.62 646.67 549.53C644.93 552.91 639.48 556.52 636.39 556.15C631.33 555.53 629.98 549.15 632.54 544.09C634.31 540.61 638.86 538.74 642.16 536.15C643.23 536.55 644.3 536.95 645.37 537.35ZM277.5 651.97C280.05 651.4 283.27 649.61 284.96 650.56C286.85 651.62 288.5 655.3 288.21 657.58C287.78 661.04 284.38 663.28 281.08 661.34C278.94 660.07 278.03 656.73 276.56 654.32C276.88 653.54 277.19 652.76 277.5 651.97ZM598.16 303.03C602.74 301.25 606.32 298.6 607.77 299.62C609.51 300.85 610.48 305.34 609.91 308.19C609.14 312.05 605.63 314.88 602.61 312.79C600.68 311.46 600.15 307.66 598.16 303.03Z" />
		<path id="Path 3" class="shp2" d="M286.77 320.86C315.3 330.93 327.5 358.8 317.68 388.58C308.89 415.25 273.14 429.62 250.1 420.26C223.83 409.6 210.86 382.21 219.23 354.79C227.07 329.14 261.23 308.85 286.77 320.86Z" />
		<path id="Path 4" class="shp1" d="M306.04 360.82C303.06 369 293.51 373.6 285.4 370.75C276.98 367.8 272.21 357.81 275.17 349.32C278.15 340.8 288.12 335.87 296.48 338.79C304.89 341.72 309.3 351.88 306.04 360.82Z" />
		<path id="Path 5" class="shp2" d="M417.63 174.23C459.74 186.91 484.88 246.94 470.56 283.78C452.15 331.17 406.99 353.02 359.24 336.87C308.27 319.63 290.02 263.9 303.87 225.62C320.85 178.69 369.41 156.86 417.63 174.23Z" />
		<path id="Path 6" class="shp1" d="M359.8 296.1C365.22 281.52 381.49 274.71 397.23 280.43C411.07 285.46 418.75 302.36 413.54 316.31C408.25 330.46 392.16 337.7 377.73 332.41C362.18 326.71 354.33 310.83 359.8 296.1ZM312.67 685.23C310.13 692.38 303.83 696.19 297.94 694.14C292.65 692.29 289.53 684.17 291.67 677.79C293.87 671.21 300.77 667.32 306.74 669.3C312.9 671.34 315.32 677.81 312.67 685.23ZM611.66 551.9C618.44 554.97 622.35 566.07 619.15 573.17C615.23 581.88 605.82 586.51 598.7 583.24C591.79 580.06 588.39 568.79 592 560.99C595.45 553.51 605.24 548.99 611.66 551.9ZM587.85 331.49C585.25 338.71 577.93 343.59 572.39 341.79C566.89 340 564.4 331.36 567.07 323.38C569.33 316.66 576.88 311.63 582.11 313.36C587.76 315.23 590.55 324.02 587.85 331.49ZM226.84 531.54C228.92 526.2 235.26 523.17 240.29 525.11C244.96 526.91 247.68 533.66 245.69 538.52C243.63 543.57 237.45 546.45 232.6 544.63C227.49 542.73 224.83 536.67 226.84 531.54Z" />
		<path id="Path 7" class="shp3" d="M283.35 452.77C283.35 452.77 355.99 473.12 371.91 450.52C387.82 427.91 381.03 393.23 381.03 393.23C381.03 393.23 413.91 419.95 442.25 398.62C470.6 377.29 453.2 345.2 453.2 345.2" />
		<path id="Path 8" class="shp4" d="M441.35 403.01C455.06 419.12 458.07 434.43 458.24 418.68C458.3 413.63 449.41 392.28 451.66 392.62" />
		<path id="Path 9" class="shp5" d="M458.36 379C472.53 380.4 481.13 386.41 473.86 378.7C471.53 376.23 457.25 370.03 458.5 369.15" />
		<path id="Path 10" class="shp6" d="M375.12 445.34C395.67 463.27 415.33 467.39 395.05 467.36C388.54 467.35 361.17 455.57 361.59 458.46" />
		<path id="Path 11" class="shp7" d="M385.17 425.1C398.92 430.84 409.3 430.55 399.49 432.73C396.34 433.43 380.6 431.15 381.41 432.39" />
		<path id="Path 12" class="shp1" d="M399.63 378.29C399.42 387.76 396.9 396.32 388.4 401.52C379.44 407 369.86 406.93 360.21 402.85C364.62 387.87 384.46 375.55 399.63 378.29ZM101.2 369.67C93.92 348 94.69 327.29 95.63 306.97C74.47 320.41 53.61 333.65 31.39 347.76C54.92 355.15 77.31 362.17 101.2 369.67Z" />
	</g>
</svg>