<?xml version="1.0" encoding="utf-8"?>
<!-- Generator: Adobe Illustrator 24.1.0, SVG Export Plug-In . SVG Version: 6.00 Build 0)  -->
<svg version="1.1" id="Calque_1" xmlns="http://www.w3.org/2000/svg" xmlns:xlink="http://www.w3.org/1999/xlink" x="0px" y="0px"
	 viewBox="0 0 691.57 607.07" style="enable-background:new 0 0 691.57 607.07;" xml:space="preserve">
<style type="text/css">
	.st0{fill:#262626;}
	.st1{fill:#FFFFFF;}
	.st2{fill:none;stroke:#FFFFFF;stroke-width:2.4196;stroke-linecap:round;stroke-miterlimit:10;}
	.st3{fill:#FFFFFF;stroke:#FFFFFF;stroke-width:1.9518;stroke-linecap:round;stroke-miterlimit:10;}
	.st4{fill:#FFFFFF;stroke:#FFFFFF;stroke-width:1.3134;stroke-linecap:round;stroke-miterlimit:10;}
	.st5{fill:#FFFFFF;stroke:#FFFFFF;stroke-width:2.5144;stroke-linecap:round;stroke-miterlimit:10;}
	.st6{fill:#FFFFFF;stroke:#FFFFFF;stroke-width:1.2265;stroke-linecap:round;stroke-miterlimit:10;}
	.st7{fill:none;stroke:#73C7D5;stroke-width:27.5;stroke-linecap:round;stroke-miterlimit:10;}
	.st8{fill:#73C7D5;}
	.st9{fill:none;stroke:#73C7D5;stroke-width:18.5;stroke-linecap:round;stroke-miterlimit:10;}
	.st10{fill:none;stroke:#73C7D5;stroke-width:13;stroke-miterlimit:10;}
</style>
<g>
	<g>
		<path class="st0" d="M497.63,360.24c-0.23-1.35-0.4-2.93-0.82-4.42c-0.1-0.36-1.07-0.71-1.62-0.69
			c-9.03,0.48-17.51-1.58-25.47-5.71c-5.36-2.78-9.2-7.06-11.22-12.85c-1.04-2.97-0.86-5.97-0.43-9.01c0.09-0.63-0.25-1.56-0.72-2
			c-3.79-3.62-7.67-7.16-11.79-10.98c-1.21,0.75-2.77,1.67-4.27,2.69c-3.47,2.34-6.89,4.74-10.35,7.09c-0.73,0.5-1.5,0.98-2.31,1.3
			c-0.43,0.17-1-0.03-1.5-0.07c0.13-0.51,0.1-1.21,0.43-1.49c2.09-1.74,4.18-3.5,6.42-5.03c3.29-2.26,6.69-4.34,10.18-6.58
			c-1.64-2.76-3.24-5.46-4.97-8.36c-3.11,1.91-6.23,3.81-9.32,5.74c-2.37,1.47-4.67,3.06-7.09,4.44c-0.6,0.34-1.54,0.1-2.33,0.12
			c0.33-0.64,0.5-1.51,1.03-1.87c5.07-3.47,10.19-6.88,15.34-10.22c0.95-0.62,1.37-1.15,0.97-2.27c-0.36-1.01-0.72-2.06-0.81-3.12
			c-0.28-3.17-2.13-4.32-5.07-5.01c-10.88-2.56-21.36-6.39-31.7-10.61c-1.86-0.76-2.04-2.04-1.33-3.5
			c2.56-5.29,4.99-10.67,7.93-15.75c4.47-7.75,10.56-14.25,17.21-20.14c3.72-3.3,6.54-7.12,9.02-11.37
			c5.35-9.21,11.14-18.14,18.35-26.04c9.12-9.98,19.72-17.94,31.93-23.85c19.82-9.58,40.84-14.12,62.65-15.76
			c2.92-0.22,5.76-1.75,8.62-2.72c8.22-2.77,16.37-5.77,24.68-8.23c3.71-1.1,7.74-1.13,11.62-1.62c2.08-0.26,3.33,0.73,4.08,2.63
			c1.79,4.49,2.3,9.2,2.42,13.97c0.31,12.13-1.48,23.98-4.77,35.64c-0.21,0.75,0.06,1.87,0.52,2.54c0.88,1.3,2.05,2.4,3.22,3.71
			c6.2-3.86,11.73-8.97,18.81-12c0.42,1.98-0.63,2.7-1.66,3.41c-4.94,3.44-9.89,6.87-14.83,10.31c-0.26,0.18-0.48,0.41-0.85,0.74
			c1.62,3.21,3.24,6.42,4.99,9.91c1.35-0.74,2.58-1.5,3.87-2.1c4.47-2.09,8.98-4.11,13.46-6.19c0.98-0.45,1.85-0.41,2.09,0.68
			c0.08,0.39-0.68,1.18-1.22,1.45c-5.71,2.87-11.45,5.68-17.34,8.58c2.33,5.94,2.54,11.97,3.23,17.93c0.03,0.25,2.23,5.39,2.36,5.6
			c3.92,6.54,4.94,9.18,4.13,16.33c-0.68,6.02-5.26,11.65-6.43,17.61c-0.56,2.85-1.3,5.69-2.18,8.46c-0.57,1.78,0.08,2.63,1.55,3.43
			c5.15,2.81,9.72,6.38,13.69,10.72c10.22,11.19,14.43,24.47,12.92,39.38c-1.98,19.59-10.09,36.44-24.72,49.71
			c-4.83,4.38-10.73,7.6-16.23,11.21c-2.37,1.56-4.95,2.82-7.51,4.08c-1.54,0.76-1.97,1.65-1.41,3.32c1.63,4.8,3.14,9.63,4.66,14.47
			c0.92,2.95,1.34,5.93,0.29,8.95c-1.03,2.98-6.12,5.67-9.16,4.83c-5.85-1.61-8.26-4.61-8.67-10.7c-0.32-4.65-1.32-9.13-3.28-13.4
			c-0.91-1.97-2.27-2.94-4.46-2.76c-2.71,0.22-5.43,0.46-8.14,0.54c-6.53,0.19-12.87-1.04-19.08-2.92
			c-4.67-1.42-9.3-2.97-13.91-4.57c-1.83-0.63-3.51-0.82-5.28,0.21c-2.3,1.34-4.78,1.34-7.14,0.26c-3.27-1.49-6.63-2.91-9.64-4.85
			c-5.16-3.31-10.14-6.91-15.08-10.54c-4.99-3.67-6.27-8.98-5.4-14.74c0.47-3.14,1.45-6.38,2.99-9.13
			C485.09,363.05,490.99,361.12,497.63,360.24z"/>
		<path d="M583.87,165.42c-6.78,5.04-13.6,10.11-20.33,15.11c6.44,4.27,13.07,8.66,19.72,13.07
			C584.5,184.19,585.83,174.69,583.87,165.42z"/>
		<path d="M503.23,381.55c0.89-2.49,0.08-4.65-1.99-5.34c-2-0.66-4.31,0.64-5.05,2.85c-0.72,2.14,0.33,4.86,2.1,5.48
			C500.27,385.22,502.37,383.95,503.23,381.55z"/>
		<path d="M607.31,343c-1.17,3.13-5.92,5.49-8.88,4.41c-3.5-1.27-5.32-5.31-4.01-8.89c1.32-3.62,5.54-5.74,8.92-4.47
			C606.77,335.33,608.62,339.51,607.31,343z M602.54,336.55c-1.77-0.79-4.4,0.29-5.29,2.17c-0.92,1.96,0.08,4.85,1.99,5.71
			c1.96,0.89,4.49-0.22,5.49-2.41C605.56,340.24,604.41,337.39,602.54,336.55z"/>
		<path d="M475.68,336.69c-3.1-1.09-4.62-4.4-3.47-7.57c1.1-3.01,4.29-4.46,7.45-3.39c3.02,1.02,4.7,4.52,3.64,7.57
			C482.42,335.85,478.4,337.64,475.68,336.69z M474.47,330.05c-0.67,1.72,0.22,3.75,1.93,4.39c1.63,0.61,3.7-0.36,4.39-2.05
			c0.67-1.63-0.24-3.89-1.81-4.49C477.29,327.25,475.16,328.26,474.47,330.05z"/>
		<path d="M474.55,340.57c-0.62,1.26-1.69,1.69-3.09,1.23c-1.3-0.43-1.84-1.77-1.31-3.09c0.54-1.36,2.01-2.11,3.2-1.63
			C474.53,337.56,475.11,339.15,474.55,340.57z"/>
		<path d="M586.03,259.81c-0.71,1.52-1.71,2.48-3.18,2.06c-1.49-0.43-1.8-1.77-1.37-3.45c0.4-1.55,2.21-2.8,3.33-2.29
			C586.16,256.73,586.43,258.08,586.03,259.81z"/>
		<path d="M586.78,250.66c0.59-1.68,2.01-2.56,3.26-2.09c1.22,0.47,1.85,2.17,1.2,3.63c-0.71,1.6-1.84,2.47-3.27,2
			C586.47,253.7,586.41,252.23,586.78,250.66z"/>
		<path d="M468.92,331.38c1.18,0.66,1.77,1.59,1.2,2.94c-0.54,1.28-1.55,1.82-2.89,1.32c-1.38-0.52-1.67-1.62-1.21-2.92
			C466.52,331.35,467.56,331.01,468.92,331.38z"/>
		<path d="M591.96,341.34c-0.83,2.5-2.73,3.82-4.21,3.1c-1.51-0.73-2.07-2.25-1.45-4.19c0.65-2.05,1.93-3.23,3.77-2.65
			C591.81,338.15,592.46,339.57,591.96,341.34z"/>
		<path d="M490.26,381.42c0.24,0.85,0.89,1.9,0.72,2.79c-0.25,1.29-1.42,1.95-2.8,1.52c-1.33-0.42-1.7-1.56-1.33-2.75
			C487.26,381.67,488.35,381.22,490.26,381.42z"/>
		<path d="M592.02,330.52c2.19-0.89,3.61-1.98,4.77-1.83c1.85,0.25,2.31,2.21,1.52,4.2c-0.75,1.91-2.37,3.26-3.93,2.3
			C593.39,334.59,593.07,332.73,592.02,330.52z"/>
		<path d="M606.16,325.65c1.68,0.74,2.13,2.24,1.44,4.16c-0.74,2.06-2.2,3.02-3.93,2.34c-1.68-0.65-1.91-2.31-1.19-4.23
			C603.21,325.96,604.48,325.17,606.16,325.65z"/>
		<path d="M599.03,251.33c-1.69,0.72-2.73,1.48-3.68,1.49c-1.09,0.01-1.62-2.12-0.98-3.43c0.67-1.37,1.81-2.38,2.91-1.64
			C598.01,248.24,598.25,249.64,599.03,251.33z"/>
		<path d="M501.42,370.92c-0.72,0.23-1.76,0.93-2.63,0.76c-1.48-0.29-1.55-1.7-1.14-2.91c0.41-1.23,1.49-1.54,2.62-1.19
			C501.6,368.01,501.8,369.1,501.42,370.92z"/>
		<path d="M487.14,376.04c1.64-0.52,2.66-1.18,3.54-1.03c1.36,0.23,1.57,1.55,1.18,2.71c-0.41,1.22-1.54,1.94-2.66,1.36
			C488.43,378.68,488.07,377.48,487.14,376.04z"/>
		<path d="M471.31,326.93c-0.55,1.26-1.44,1.91-2.71,1.41c-1.27-0.5-1.5-1.6-1.05-2.83c0.44-1.21,1.4-1.66,2.56-1.3
			C471.44,324.65,471.6,325.76,471.31,326.93z"/>
		<path d="M477.88,322.57c-1.54,0.55-2.5,1.24-3.33,1.1c-1.29-0.21-1.91-1.5-1.23-2.6c0.43-0.7,1.75-1.34,2.51-1.19
			C476.5,320.01,476.95,321.27,477.88,322.57z"/>
		<path d="M614.71,332c0.19,1.39,0.94,3.1,0.44,4.08c-0.59,1.13-2.41,2.34-3.44,2.22c-1.7-0.21-2.15-2.34-1.29-4.04
			c0.59-1.17,2.12-1.79,3.22-2.66C613.99,331.73,614.35,331.86,614.71,332z"/>
		<path d="M491.44,370.41c0.85-0.19,1.93-0.79,2.5-0.47c0.63,0.35,1.19,1.59,1.09,2.35c-0.15,1.16-1.28,1.91-2.39,1.26
			c-0.72-0.42-1.02-1.54-1.51-2.35C491.23,370.93,491.34,370.67,491.44,370.41z"/>
		<path d="M598.89,253.48c1.53-0.6,2.73-1.49,3.22-1.14c0.58,0.41,0.91,1.92,0.72,2.87c-0.26,1.29-1.43,2.24-2.45,1.54
			C599.73,256.31,599.56,255.03,598.89,253.48z"/>
		<g>
			<g>
				<path class="st1" d="M494.55,259.46c9.56,3.38,13.65,12.71,10.36,22.69c-2.95,8.94-14.93,13.75-22.65,10.62
					c-8.8-3.57-13.15-12.75-10.34-21.94C474.54,262.23,485.99,255.43,494.55,259.46z"/>
			</g>
			<path d="M501.01,272.85c-1,2.74-4.2,4.28-6.92,3.33c-2.82-0.99-4.42-4.34-3.43-7.18c1-2.85,4.34-4.51,7.14-3.53
				C500.62,266.44,502.1,269.85,501.01,272.85z"/>
		</g>
		<g>
			<path class="st1" d="M538.4,210.32c14.11,4.25,22.53,24.36,17.74,36.71c-6.17,15.88-21.3,23.2-37.3,17.79
				c-17.08-5.78-23.19-24.45-18.55-37.28C505.97,211.82,522.24,204.5,538.4,210.32z"/>
			<path d="M519.02,251.16c1.82-4.89,7.27-7.17,12.54-5.25c4.64,1.69,7.21,7.35,5.46,12.02c-1.77,4.74-7.16,7.17-12,5.39
				C519.82,261.42,517.19,256.09,519.02,251.16z"/>
		</g>
		<path d="M503.23,381.55c-0.85,2.4-2.96,3.67-4.94,2.99c-1.77-0.62-2.82-3.34-2.1-5.48c0.74-2.21,3.05-3.51,5.05-2.85
			C503.31,376.89,504.11,379.06,503.23,381.55z"/>
		<path d="M603.41,336.87c2.27,1.03,3.58,4.75,2.51,7.13c-1.32,2.92-4.47,4.47-6.85,3.37c-2.32-1.06-3.45-4.84-2.25-7.45
			C597.98,337.41,601.26,335.9,603.41,336.87z"/>
		<path d="M595.44,263.02c-0.87,2.42-3.33,4.05-5.18,3.45c-1.84-0.6-2.68-3.49-1.78-6.17c0.75-2.25,3.29-3.94,5.04-3.36
			C595.41,257.57,596.34,260.52,595.44,263.02z"/>
		<path d="M474.47,330.05c0.7-1.79,2.82-2.8,4.51-2.15c1.57,0.6,2.47,2.86,1.81,4.49c-0.69,1.69-2.76,2.66-4.39,2.05
			C474.69,333.8,473.79,331.77,474.47,330.05z"/>
		<g>
			<path class="st2" d="M493.4,303.66c0,0,24.34,6.82,29.67-0.75s3.06-19.2,3.06-19.2s11.02,8.95,20.51,1.81s3.67-17.9,3.67-17.9"/>
			<path class="st3" d="M546.34,286.98c4.6,5.4,5.61,10.53,5.66,5.25c0.02-1.69-2.96-8.85-2.21-8.73"/>
			<path class="st4" d="M552.04,278.94c4.75,0.47,7.63,2.48,5.2-0.1c-0.78-0.83-5.57-2.91-5.15-3.2"/>
			<path class="st5" d="M524.15,301.17c6.88,6.01,13.47,7.39,6.68,7.38c-2.18,0-11.35-3.95-11.21-2.98"/>
			<path class="st6" d="M527.52,294.38c4.61,1.93,8.09,1.83,4.8,2.56c-1.06,0.23-6.33-0.53-6.06-0.11"/>
			<path d="M532.36,278.7c-0.07,3.17-0.91,6.04-3.76,7.79c-3,1.84-6.21,1.81-9.45,0.44C520.63,281.91,527.28,277.78,532.36,278.7z"
				/>
		</g>
	</g>
	<path d="M432.37,275.81c-2.44-7.26-2.18-14.2-1.87-21.01c-7.09,4.5-14.08,8.94-21.53,13.67
		C416.86,270.94,424.36,273.3,432.37,275.81z"/>
</g>
<polyline class="st7" points="333.05,283.17 406.25,320.34 440.04,496.03 623.62,496.03 658.53,340.61 "/>
<circle class="st8" cx="446.8" cy="546.71" r="27.08"/>
<circle class="st8" cx="611.23" cy="546.71" r="27.08"/>
<g>
	<line class="st9" x1="530.14" y1="393.24" x2="530.14" y2="446.17"/>
	<polyline class="st9" points="505.36,440.54 530.14,468.14 554.92,440.54 	"/>
</g>
<path class="st8" d="M240.7,166.6c0,0-27.03-2.25-30.41,22.52s-6.76,101.92-6.76,101.92l-59.69,108.12h61.94l1.13,69.83
	c0,0-46.18,63.07-47.3,68.7c-1.13,5.63-1.13,11.26,4.5,16.89c5.63,5.63,19.15,5.63,27.03-4.5c7.88-10.14,18.02-21.4,18.02-21.4
	s0,16.89,0,25.9c0,9.01,4.5,21.4,14.64,21.4c10.14,0,15.77-11.26,15.77-23.65s0-154.29,0-154.29h63.07l-59.69-96.86l13.51-67.57
	l87.85,59.69l21.4,3.38c0,0-92.35-116.57-97.98-122.2S260.97,165.48,240.7,166.6z"/>
<path class="st8" d="M84.83,122.96c-4.11,6.68-9.03,11.73-14.76,15.14c-5.73,3.41-10.97,5.12-15.74,5.12
	c-6.73,0-12.76-2.9-18.09-8.69c-5.33-5.79-7.99-14.61-7.99-26.43c0-9.3,1.76-17.6,5.29-24.89c3.53-7.29,8.27-13.06,14.23-17.32
	c5.96-4.25,13.31-6.38,22.05-6.38c2.57,0,6.4,0.28,11.5,0.84c0.79,0.09,1.96,0.21,3.51,0.35h13.39v56.72c0,9.67,1,17.53,3.02,23.56
	H87.29C86.26,136.58,85.44,130.58,84.83,122.96z M84.83,107.04V72.62c-4.77-1.26-9.18-1.89-13.25-1.89
	c-8.23,0-15.09,3.19-20.58,9.57c-5.49,6.38-8.24,15.06-8.24,26.04c0,7.95,1.5,13.94,4.49,17.98c2.99,4.04,6.4,6.06,10.24,6.06
	c4.16,0,8.75-2.1,13.78-6.31C76.29,119.87,80.81,114.19,84.83,107.04z"/>
<path class="st8" d="M174.01,122.96c-4.07,6.68-8.96,11.73-14.69,15.14c-5.73,3.41-11,5.12-15.81,5.12c-6.68,0-12.7-2.9-18.05-8.69
	c-5.35-5.79-8.03-14.61-8.03-26.43c0-9.3,1.78-17.6,5.33-24.89c3.55-7.29,8.3-13.06,14.23-17.32c5.94-4.25,13.3-6.38,22.08-6.38
	c2.52,0,6.36,0.28,11.5,0.84c0.75,0.09,1.89,0.21,3.44,0.35V24.95h13.46v116.03h-13.46V122.96z M174.01,107.04V72.62
	c-4.77-1.26-9.18-1.89-13.25-1.89c-8.23,0-15.09,3.19-20.58,9.57c-5.49,6.38-8.24,15.06-8.24,26.04c0,7.95,1.49,13.94,4.49,17.98
	c2.99,4.04,6.4,6.06,10.24,6.06c4.16,0,8.76-2.1,13.81-6.31C165.53,119.87,170.04,114.19,174.01,107.04z"/>
<path class="st10" d="M241.8,143.9c-11.5,0-20.71-4.02-27.62-12.06c-6.92-8.04-10.38-18.16-10.38-30.36
	c0-12.25,3.46-22.36,10.38-30.36s16.13-11.99,27.62-11.99c11.45,0,20.62,4,27.52,11.99c6.89,7.99,10.34,18.11,10.34,30.36
	c0,12.2-3.45,22.32-10.34,30.36C262.42,139.88,253.25,143.9,241.8,143.9z"/>
<path class="st8" d="M309.38,78.72c4.11-6.73,9.03-11.79,14.76-15.18c5.73-3.39,10.97-5.08,15.74-5.08c6.73,0,12.77,2.9,18.12,8.69
	c5.35,5.8,8.03,14.58,8.03,26.36c0,9.3-1.78,17.61-5.33,24.92c-3.55,7.32-8.31,13.09-14.27,17.32c-5.96,4.23-13.31,6.34-22.05,6.34
	c-2.52,0-6.36-0.26-11.5-0.77c-0.8-0.09-1.96-0.21-3.51-0.35v31.2h-13.32V60.7h13.32V78.72z M309.38,94.63v34.42
	c4.86,1.22,9.32,1.82,13.39,1.82c8.09,0,14.9-3.17,20.44-9.5c5.54-6.33,8.31-15.01,8.31-26.04c0-7.99-1.51-14.01-4.52-18.05
	c-3.01-4.04-6.44-6.06-10.27-6.06c-4.16,0-8.75,2.12-13.78,6.34C317.92,81.79,313.4,87.48,309.38,94.63z"/>
<path class="st8" d="M452.54,137.75c-6.31,2.62-10.88,4.18-13.71,4.7c-2.83,0.51-5.55,0.77-8.17,0.77c-5.61,0-10.74-1.08-15.39-3.22
	c-4.65-2.15-8.16-5.34-10.52-9.57c-2.36-4.23-3.54-10.76-3.54-19.59V78.51H381.1V67.36h20.12V35.04h13.32v32.32h35.75v11.15h-35.75
	v32.11c0,6.5,0.77,11.08,2.31,13.74c1.54,2.66,3.6,4.62,6.17,5.85c2.57,1.24,5.58,1.86,9.04,1.86c6.5,0,13.32-2.03,20.47-6.1V137.75
	z"/>
<g>
	<path d="M450.97,108.45c-1,1.77-2.19,3.1-3.58,4c-1.39,0.9-2.67,1.35-3.82,1.35c-1.63,0-3.1-0.77-4.39-2.3s-1.94-3.86-1.94-6.98
		c0-2.46,0.43-4.65,1.29-6.57c0.86-1.93,2.01-3.45,3.46-4.57c1.45-1.12,3.23-1.69,5.36-1.69c0.62,0,1.55,0.07,2.79,0.22
		c0.19,0.02,0.48,0.06,0.85,0.09h3.25v14.98c0,2.56,0.24,4.63,0.73,6.22h-3.39C451.32,112.05,451.12,110.46,450.97,108.45z
		 M450.97,104.24v-9.09c-1.16-0.33-2.23-0.5-3.22-0.5c-2,0-3.66,0.84-5,2.53c-1.33,1.69-2,3.98-2,6.88c0,2.1,0.36,3.68,1.09,4.75
		c0.73,1.07,1.55,1.6,2.49,1.6c1.01,0,2.13-0.56,3.35-1.67C448.9,107.63,450,106.13,450.97,104.24z"/>
	<path d="M459.61,113.21V92h3.25v4.63c0.93-1.63,2.05-2.91,3.36-3.83c1.31-0.93,2.62-1.39,3.94-1.39c1.16,0,2.21,0.33,3.15,1
		c0.94,0.67,1.6,1.54,1.98,2.61c0.38,1.07,0.57,3.19,0.57,6.33v11.85h-3.25v-12.28c0-2.05-0.09-3.4-0.27-4.05
		c-0.18-0.65-0.51-1.18-1-1.6c-0.48-0.42-1.01-0.63-1.58-0.63c-1.15,0-2.37,0.59-3.68,1.77c-1.31,1.18-2.38,2.65-3.24,4.42v12.37
		H459.61z"/>
	<path d="M493.02,83.74h3.52v19.33c0,2.56,0.2,4.3,0.59,5.22s0.99,1.63,1.8,2.12s1.71,0.73,2.7,0.73c1.04,0,1.98-0.26,2.8-0.79
		c0.82-0.52,1.43-1.35,1.81-2.46s0.58-3.23,0.58-6.32V83.74h3.25v19.22c0,2.75-0.37,4.9-1.12,6.45c-0.75,1.55-1.73,2.72-2.95,3.5
		c-1.21,0.78-2.74,1.18-4.58,1.18c-1.69,0-3.18-0.34-4.48-1.03c-1.29-0.69-2.27-1.71-2.94-3.07c-0.66-1.36-1-3.83-1-7.4V83.74z"/>
	<path d="M528.01,108.45c-0.99,1.77-2.18,3.1-3.57,4s-2.67,1.35-3.84,1.35c-1.62,0-3.08-0.77-4.38-2.3s-1.95-3.86-1.95-6.98
		c0-2.46,0.43-4.65,1.29-6.57c0.86-1.93,2.01-3.45,3.46-4.57c1.44-1.12,3.23-1.69,5.36-1.69c0.61,0,1.54,0.07,2.79,0.22
		c0.18,0.02,0.46,0.06,0.83,0.09h3.27v15c0,3.57-0.05,5.75-0.14,6.54s-0.23,1.59-0.43,2.41c-0.47,1.88-1.53,3.36-3.18,4.45
		s-3.67,1.64-6.03,1.64c-2.36,0-4.75-0.66-7.17-1.98v-3.57c0.92,0.69,2.05,1.3,3.4,1.82s2.65,0.79,3.91,0.79
		c0.99,0,1.92-0.17,2.81-0.51c0.89-0.34,1.6-0.84,2.15-1.49c0.54-0.64,0.92-1.39,1.12-2.25c0.2-0.86,0.3-1.99,0.3-3.4V108.45z
		 M528.01,104.24v-9.09c-1.16-0.33-2.23-0.5-3.22-0.5c-2,0-3.66,0.84-5,2.53c-1.33,1.69-2,3.98-2,6.88c0,2.1,0.36,3.68,1.09,4.75
		s1.55,1.6,2.49,1.6c1.01,0,2.13-0.56,3.35-1.67C525.95,107.63,527.04,106.13,528.01,104.24z"/>
	<path d="M541.68,113.21V85.52h-5.84v-2.96h9.08v27.71h6.1v2.94H541.68z"/>
	<path d="M565.06,112.35L556.05,92h3.58l7.18,15.91L572.82,92h3.25l-7.56,19.71c-1.59,4.16-3.1,6.93-4.54,8.3
		c-1.44,1.37-3.29,2.06-5.58,2.06c-0.99,0-1.87-0.1-2.66-0.3v-3.11c0.9,0.31,1.75,0.46,2.57,0.46c1.04,0,1.97-0.22,2.78-0.67
		c0.81-0.44,1.55-1.23,2.23-2.35c0.67-1.12,1.15-2.1,1.44-2.93L565.06,112.35z"/>
	<path d="M608.11,112.87c-2.03,0.81-3.85,1.22-5.45,1.22c-2.12,0-4.08-0.62-5.86-1.85c-1.78-1.23-3.17-3.07-4.16-5.51
		c-0.99-2.44-1.48-5.19-1.48-8.27c0-3.05,0.49-5.79,1.46-8.22c0.98-2.43,2.36-4.27,4.14-5.53c1.78-1.25,3.75-1.88,5.89-1.88
		c1.6,0,3.42,0.41,5.45,1.24v3.5c-1.87-1.19-3.74-1.78-5.58-1.78c-1.41,0-2.69,0.52-3.85,1.56c-1.16,1.04-2.09,2.57-2.8,4.57
		c-0.71,2.01-1.06,4.18-1.06,6.53c0,2.4,0.37,4.61,1.11,6.63c0.74,2.02,1.67,3.54,2.81,4.55c1.13,1.01,2.4,1.51,3.8,1.51
		c1.84,0,3.7-0.59,5.58-1.76V112.87z"/>
	<path d="M626.09,108.45c-1,1.77-2.19,3.1-3.58,4c-1.39,0.9-2.67,1.35-3.82,1.35c-1.63,0-3.1-0.77-4.39-2.3s-1.94-3.86-1.94-6.98
		c0-2.46,0.43-4.65,1.29-6.57c0.86-1.93,2.01-3.45,3.46-4.57c1.45-1.12,3.23-1.69,5.36-1.69c0.62,0,1.55,0.07,2.79,0.22
		c0.19,0.02,0.48,0.06,0.85,0.09h3.25v14.98c0,2.56,0.24,4.63,0.73,6.22h-3.39C626.43,112.05,626.23,110.46,626.09,108.45z
		 M626.09,104.24v-9.09c-1.16-0.33-2.23-0.5-3.22-0.5c-2,0-3.66,0.84-5,2.53c-1.33,1.69-2,3.98-2,6.88c0,2.1,0.36,3.68,1.09,4.75
		c0.73,1.07,1.55,1.6,2.49,1.6c1.01,0,2.13-0.56,3.35-1.67C624.01,107.63,625.11,106.13,626.09,104.24z"/>
	<path d="M651.03,112.35c-1.53,0.69-2.64,1.1-3.33,1.24c-0.69,0.14-1.35,0.2-1.98,0.2c-1.36,0-2.61-0.28-3.74-0.85
		c-1.13-0.57-1.98-1.41-2.55-2.53c-0.57-1.12-0.86-2.84-0.86-5.18V96.7h-4.89v-2.94h4.89v-8.54h3.23v8.54h8.68v2.94h-8.68v8.48
		c0,1.72,0.19,2.93,0.56,3.63c0.37,0.7,0.87,1.22,1.5,1.55c0.62,0.33,1.36,0.49,2.2,0.49c1.58,0,3.24-0.54,4.97-1.61V112.35z"/>
</g>
</svg>
