<?xml version="1.0" encoding="utf-8"?>
<!-- Generator: Adobe Illustrator 24.1.0, SVG Export Plug-In . SVG Version: 6.00 Build 0)  -->
<svg version="1.1" id="Calque_1" xmlns="http://www.w3.org/2000/svg" xmlns:xlink="http://www.w3.org/1999/xlink" x="0px" y="0px"
	 viewBox="0 0 2038.55 769.25" style="enable-background:new 0 0 2038.55 769.25;" xml:space="preserve">
<style type="text/css">
	.st0{fill:#73C7D5;}
	.st1{fill:#262626;}
	.st2{fill:#FFFFFF;}
	.st3{fill:none;stroke:#FFFFFF;stroke-width:2.4196;stroke-linecap:round;stroke-miterlimit:10;}
	.st4{fill:#FFFFFF;stroke:#FFFFFF;stroke-width:1.9518;stroke-linecap:round;stroke-miterlimit:10;}
	.st5{fill:#FFFFFF;stroke:#FFFFFF;stroke-width:1.3134;stroke-linecap:round;stroke-miterlimit:10;}
	.st6{fill:#FFFFFF;stroke:#FFFFFF;stroke-width:2.5144;stroke-linecap:round;stroke-miterlimit:10;}
	.st7{fill:#FFFFFF;stroke:#FFFFFF;stroke-width:1.2265;stroke-linecap:round;stroke-miterlimit:10;}
	.st8{fill:none;stroke:#73C7D5;stroke-width:27.5;stroke-linecap:round;stroke-miterlimit:10;}
	.st9{fill:none;stroke:#73C7D5;stroke-width:18.5;stroke-linecap:round;stroke-miterlimit:10;}
	.st10{fill:none;stroke:#4A4A49;stroke-width:24;stroke-linecap:round;stroke-miterlimit:10;}
	.st11{fill:#73C7D5;stroke:#73C7D5;stroke-width:13;stroke-miterlimit:10;}
	.st12{fill:#A4C858;}
	.st13{fill:none;stroke:#FFFFFF;stroke-width:13;stroke-linecap:round;stroke-miterlimit:10;}
	.st14{fill:none;stroke:#73C7D5;stroke-width:30.8358;stroke-linecap:round;stroke-miterlimit:10;}
	.st15{fill:none;stroke:#000000;stroke-width:5.091;stroke-linecap:round;stroke-miterlimit:10;}
	.st16{fill:none;stroke:#000000;stroke-width:6;stroke-linecap:round;stroke-miterlimit:10;}
</style>
<g>
	<path class="st0" d="M1266.51,526.97c-3.91,10.13-11.61,13.77-22.03,13.09c-4.22-0.27-8.47-0.05-11.7-0.05
		c-3.52-7.3-6.01-14.47-10.09-20.58c-17.01-25.46-57.73-25.36-74.7,0.16c-3.47,5.23-5.46,11.49-7.76,17.41
		c-0.8,2.07-1.39,3.07-3.84,3.07c-28.65-0.09-57.3-0.12-85.95,0.03c-3.13,0.02-3.5-1.69-4.05-3.86
		c-4.7-18.53-16.47-30.02-34.91-34.81c-22.65-5.9-48.69,9.52-54.44,32.19c-0.53,2.08-1.15,4.14-1.77,6.34
		c-7.9,0-15.58,0.31-23.23-0.08c-8.9-0.46-15.58-6.34-16.02-15.16c-0.64-12.93-0.16-25.92-0.16-39.51c1.77,0,3.49,0,5.21,0
		c113.37,0,226.74,0,340.11-0.01c1.78,0,3.56-0.08,5.34-0.12C1266.51,499.04,1266.51,513,1266.51,526.97z"/>
	<path class="st0" d="M930.86,345.43c65.81,0,131.63,0,197.44,0c16.39,3.72,16.32,16.41,15.4,29.68c10.53,0,20.49,0.11,30.45-0.04
		c8.26-0.12,15.07,2.61,20.98,8.51c19.17,19.17,38.5,38.17,57.85,57.15c5.46,5.35,10.94,10.6,13.53,18.06c0,5.75,0,11.5,0,17.25
		c-116.89,0-233.78,0-351.02,0c0-2.04,0-3.52,0-5.01c0-8.35-0.03-16.7,0.02-25.05c0.01-1.97-0.23-3.26-2.68-3.7
		c-11.71-2.06-23.38-4.33-35.07-6.53c-10.17-1.92-20.34-3.86-30.5-5.79c0.02-0.24,0.04-0.47,0.05-0.71
		c39.08-3.39,78.17-6.78,117.25-10.17c0.02-0.21,0.05-0.42,0.07-0.63c-38.89-5.54-77.78-11.07-116.67-16.61
		c-0.01-0.27-0.02-0.55-0.03-0.82c38.68-3.84,77.36-7.68,116.04-11.53c0.02-0.29,0.04-0.57,0.06-0.86
		c-38.1-4.97-76.2-9.93-114.3-14.9c0.03-0.29,0.07-0.58,0.1-0.88c21.84-2.53,43.67-5.07,64.27-7.45c1.96-5,3.13-9.21,5.19-12.93
		C921.69,348.17,926.41,346.84,930.86,345.43z M1229.02,449.7c1.29-0.02,3.29-0.72,3.66-1.63c0.38-0.94-0.71-2.58-1.36-3.81
		c-0.37-0.69-1.16-1.14-1.75-1.71c-14.16-13.5-28.57-26.74-42.34-40.62c-5.38-5.42-10.87-8.33-18.4-7.09
		c-0.13,0.02-0.27,0.01-0.41,0c-3.52-0.26-4.83,1.33-4.8,4.87c0.12,15.03,0.13,30.07,0,45.1c-0.03,3.73,1.29,5.08,5.04,5.01
		c9.85-0.18,19.71-0.06,29.57-0.06C1208.48,449.77,1218.75,449.83,1229.02,449.7z"/>
	<path class="st0" d="M968.1,546.52c0.01-19.45,15.8-35.19,35.25-35.14c19.33,0.05,35.48,16.31,35.11,35.35
		c-0.37,19.29-15.94,35.18-35.12,34.97C982.51,581.48,968.15,565.15,968.1,546.52z M1003.18,529.24
		c-9.81,0.01-17.37,7.64-17.28,17.44c0.08,9.54,7.69,17.2,17.17,17.28c9.56,0.08,17.62-7.84,17.66-17.36
		C1020.78,537.06,1012.85,529.22,1003.18,529.24z"/>
	<path class="st0" d="M1150.05,546.52c0.01-19.45,15.8-35.19,35.25-35.14c19.33,0.05,35.48,16.31,35.11,35.35
		c-0.37,19.29-15.94,35.18-35.11,34.97C1164.46,581.48,1150.1,565.15,1150.05,546.52z M1185.14,529.24
		c-9.81,0.01-17.37,7.64-17.28,17.44c0.08,9.54,7.69,17.2,17.17,17.28c9.56,0.08,17.62-7.84,17.66-17.36
		C1202.73,537.06,1194.81,529.22,1185.14,529.24z"/>
</g>
<g>
	<g>
		<path class="st1" d="M405.28,362.5c-0.23-1.35-0.4-2.93-0.82-4.42c-0.1-0.36-1.07-0.71-1.62-0.69
			c-9.03,0.48-17.51-1.58-25.47-5.71c-5.36-2.78-9.2-7.06-11.22-12.85c-1.04-2.97-0.86-5.97-0.43-9.01c0.09-0.63-0.25-1.56-0.72-2
			c-3.79-3.62-7.67-7.16-11.79-10.98c-1.21,0.75-2.77,1.67-4.27,2.69c-3.47,2.34-6.89,4.74-10.35,7.09c-0.73,0.5-1.5,0.98-2.31,1.3
			c-0.43,0.17-1-0.03-1.5-0.07c0.13-0.51,0.1-1.21,0.43-1.49c2.09-1.74,4.18-3.5,6.42-5.03c3.29-2.26,6.69-4.34,10.18-6.58
			c-1.64-2.76-3.24-5.46-4.97-8.36c-3.11,1.91-6.23,3.81-9.32,5.74c-2.37,1.47-4.67,3.06-7.09,4.44c-0.6,0.34-1.54,0.1-2.33,0.12
			c0.33-0.64,0.5-1.51,1.03-1.87c5.07-3.47,10.19-6.88,15.34-10.22c0.95-0.62,1.37-1.15,0.97-2.27c-0.36-1.01-0.72-2.06-0.81-3.12
			c-0.28-3.17-2.13-4.32-5.07-5.01c-10.88-2.56-21.36-6.39-31.7-10.61c-1.86-0.76-2.04-2.04-1.33-3.5
			c2.56-5.29,4.99-10.67,7.93-15.75c4.47-7.75,10.56-14.25,17.21-20.14c3.72-3.3,6.54-7.12,9.02-11.37
			c5.35-9.21,11.14-18.14,18.35-26.04c9.12-9.98,19.72-17.94,31.93-23.85c19.82-9.58,40.84-14.12,62.65-15.76
			c2.92-0.22,5.76-1.75,8.62-2.72c8.22-2.77,16.37-5.77,24.68-8.23c3.71-1.1,7.74-1.13,11.62-1.62c2.08-0.26,3.33,0.73,4.08,2.63
			c1.79,4.49,2.3,9.2,2.42,13.97c0.31,12.13-1.48,23.98-4.77,35.64c-0.21,0.75,0.06,1.87,0.52,2.54c0.88,1.3,2.05,2.4,3.22,3.71
			c6.2-3.86,11.73-8.97,18.81-12c0.42,1.98-0.63,2.7-1.66,3.41c-4.94,3.44-9.89,6.87-14.83,10.31c-0.26,0.18-0.48,0.41-0.85,0.74
			c1.62,3.21,3.24,6.42,4.99,9.91c1.35-0.74,2.58-1.5,3.87-2.1c4.47-2.09,8.98-4.11,13.46-6.19c0.98-0.45,1.85-0.41,2.09,0.68
			c0.08,0.39-0.68,1.18-1.22,1.45c-5.71,2.87-11.45,5.68-17.34,8.58c2.33,5.94,2.54,11.97,3.23,17.93c0.03,0.25,2.23,5.39,2.36,5.6
			c3.92,6.54,4.94,9.18,4.13,16.33c-0.68,6.02-5.26,11.65-6.43,17.61c-0.56,2.85-1.3,5.69-2.18,8.46c-0.57,1.78,0.08,2.63,1.55,3.43
			c5.15,2.81,9.72,6.38,13.69,10.72c10.22,11.19,14.43,24.47,12.92,39.38c-1.98,19.59-10.09,36.44-24.72,49.71
			c-4.83,4.38-10.73,7.6-16.23,11.21c-2.37,1.56-4.95,2.82-7.51,4.08c-1.54,0.76-1.97,1.65-1.41,3.32c1.63,4.8,3.14,9.63,4.66,14.47
			c0.92,2.95,1.34,5.93,0.29,8.95c-1.03,2.98-6.12,5.67-9.16,4.83c-5.85-1.61-8.26-4.61-8.67-10.7c-0.32-4.65-1.32-9.13-3.28-13.4
			c-0.91-1.97-2.27-2.94-4.46-2.76c-2.71,0.22-5.43,0.46-8.14,0.54c-6.53,0.19-12.87-1.04-19.08-2.92
			c-4.67-1.42-9.3-2.97-13.91-4.57c-1.83-0.63-3.51-0.82-5.28,0.21c-2.3,1.34-4.78,1.34-7.14,0.26c-3.27-1.49-6.63-2.91-9.64-4.85
			c-5.16-3.31-10.14-6.91-15.08-10.54c-4.99-3.67-6.27-8.98-5.4-14.74c0.47-3.14,1.45-6.38,2.99-9.13
			C392.74,365.3,398.64,363.37,405.28,362.5z"/>
		<path d="M491.52,167.67c-6.78,5.04-13.6,10.11-20.33,15.11c6.44,4.27,13.07,8.66,19.72,13.07
			C492.15,186.45,493.48,176.94,491.52,167.67z"/>
		<path d="M410.88,383.8c0.89-2.49,0.08-4.65-1.99-5.34c-2-0.66-4.31,0.64-5.05,2.85c-0.72,2.14,0.33,4.86,2.1,5.48
			C407.91,387.47,410.02,386.2,410.88,383.8z"/>
		<path d="M514.96,345.25c-1.17,3.13-5.92,5.49-8.88,4.41c-3.5-1.27-5.32-5.31-4.01-8.89c1.32-3.62,5.54-5.74,8.92-4.47
			C514.41,337.59,516.27,341.76,514.96,345.25z M510.19,338.81c-1.77-0.79-4.4,0.29-5.29,2.17c-0.92,1.96,0.08,4.85,1.99,5.71
			c1.96,0.89,4.49-0.22,5.49-2.41C513.2,342.49,512.06,339.64,510.19,338.81z"/>
		<path d="M383.33,338.94c-3.1-1.09-4.62-4.4-3.47-7.57c1.1-3.01,4.29-4.46,7.45-3.39c3.02,1.02,4.7,4.52,3.64,7.57
			C390.07,338.1,386.05,339.89,383.33,338.94z M382.11,332.3c-0.67,1.72,0.22,3.75,1.93,4.39c1.63,0.61,3.7-0.36,4.39-2.05
			c0.67-1.63-0.24-3.89-1.81-4.49C384.94,329.5,382.81,330.51,382.11,332.3z"/>
		<path d="M382.2,342.82c-0.62,1.26-1.69,1.69-3.09,1.23c-1.3-0.43-1.84-1.77-1.31-3.09c0.54-1.36,2.01-2.11,3.2-1.63
			C382.18,339.82,382.76,341.41,382.2,342.82z"/>
		<path d="M493.68,262.06c-0.71,1.52-1.71,2.48-3.18,2.06c-1.49-0.43-1.8-1.77-1.37-3.45c0.4-1.55,2.21-2.8,3.33-2.29
			C493.8,258.98,494.08,260.33,493.68,262.06z"/>
		<path d="M494.43,252.91c0.59-1.68,2.01-2.56,3.26-2.09c1.22,0.47,1.85,2.17,1.2,3.63c-0.71,1.6-1.84,2.47-3.27,2
			C494.12,255.95,494.06,254.49,494.43,252.91z"/>
		<path d="M376.57,333.63c1.18,0.66,1.77,1.59,1.2,2.94c-0.54,1.28-1.55,1.82-2.89,1.32c-1.38-0.52-1.67-1.62-1.21-2.92
			C374.17,333.6,375.2,333.26,376.57,333.63z"/>
		<path d="M499.61,343.6c-0.83,2.5-2.73,3.82-4.21,3.1c-1.51-0.73-2.07-2.25-1.45-4.19c0.65-2.05,1.93-3.23,3.77-2.65
			C499.45,340.4,500.1,341.83,499.61,343.6z"/>
		<path d="M397.91,383.68c0.24,0.85,0.89,1.9,0.72,2.79c-0.25,1.29-1.42,1.95-2.8,1.52c-1.33-0.42-1.7-1.56-1.33-2.75
			C394.91,383.93,396,383.47,397.91,383.68z"/>
		<path d="M499.67,332.77c2.19-0.89,3.61-1.98,4.77-1.83c1.85,0.25,2.31,2.21,1.52,4.2c-0.75,1.91-2.37,3.26-3.93,2.3
			C501.04,336.84,500.72,334.98,499.67,332.77z"/>
		<path d="M513.81,327.9c1.68,0.74,2.13,2.24,1.44,4.16c-0.74,2.06-2.2,3.02-3.93,2.34c-1.68-0.65-1.91-2.31-1.19-4.23
			C510.86,328.21,512.13,327.43,513.81,327.9z"/>
		<path d="M506.68,253.58c-1.69,0.72-2.73,1.48-3.68,1.49c-1.09,0.01-1.62-2.12-0.98-3.43c0.67-1.37,1.81-2.38,2.91-1.64
			C505.66,250.5,505.9,251.9,506.68,253.58z"/>
		<path d="M409.07,373.18c-0.72,0.23-1.76,0.93-2.63,0.76c-1.48-0.29-1.55-1.7-1.14-2.91c0.41-1.23,1.49-1.54,2.62-1.19
			C409.25,370.26,409.45,371.35,409.07,373.18z"/>
		<path d="M394.79,378.29c1.64-0.52,2.66-1.18,3.54-1.03c1.36,0.23,1.57,1.55,1.18,2.71c-0.41,1.22-1.54,1.94-2.66,1.36
			C396.07,380.93,395.72,379.73,394.79,378.29z"/>
		<path d="M378.95,329.18c-0.55,1.26-1.44,1.91-2.71,1.41c-1.27-0.5-1.5-1.6-1.05-2.82c0.44-1.21,1.4-1.66,2.56-1.3
			C379.09,326.9,379.25,328.01,378.95,329.18z"/>
		<path d="M385.53,324.82c-1.54,0.55-2.5,1.24-3.33,1.1c-1.29-0.21-1.91-1.5-1.23-2.6c0.43-0.7,1.75-1.34,2.51-1.19
			C384.15,322.26,384.6,323.53,385.53,324.82z"/>
		<path d="M522.36,334.25c0.19,1.39,0.94,3.1,0.44,4.08c-0.59,1.13-2.41,2.34-3.44,2.22c-1.7-0.21-2.15-2.34-1.29-4.04
			c0.59-1.17,2.12-1.79,3.22-2.66C521.64,333.98,522,334.12,522.36,334.25z"/>
		<path d="M399.09,372.66c0.85-0.19,1.93-0.79,2.5-0.47c0.63,0.35,1.19,1.59,1.09,2.35c-0.15,1.16-1.28,1.91-2.39,1.26
			c-0.72-0.42-1.02-1.54-1.51-2.35C398.88,373.18,398.99,372.92,399.09,372.66z"/>
		<path d="M506.54,255.73c1.53-0.6,2.73-1.49,3.22-1.14c0.58,0.41,0.91,1.92,0.72,2.87c-0.26,1.29-1.43,2.24-2.45,1.54
			C507.38,258.56,507.21,257.29,506.54,255.73z"/>
		<g>
			<g>
				<path class="st2" d="M402.2,261.71c9.56,3.38,13.65,12.71,10.36,22.69c-2.95,8.94-14.93,13.75-22.65,10.62
					c-8.8-3.57-13.15-12.75-10.34-21.94C382.19,264.48,393.64,257.68,402.2,261.71z"/>
			</g>
			<path d="M408.65,275.1c-1,2.74-4.2,4.28-6.92,3.33c-2.82-0.99-4.42-4.34-3.43-7.18c1-2.85,4.34-4.51,7.14-3.53
				C408.27,268.7,409.75,272.1,408.65,275.1z"/>
		</g>
		<g>
			<path class="st2" d="M446.04,212.58c14.11,4.25,22.53,24.36,17.74,36.71c-6.17,15.88-21.3,23.2-37.3,17.79
				c-17.08-5.78-23.19-24.45-18.55-37.28C413.62,214.07,429.89,206.75,446.04,212.58z"/>
			<path d="M426.67,253.41c1.82-4.89,7.27-7.17,12.54-5.25c4.64,1.69,7.21,7.35,5.46,12.02c-1.77,4.74-7.16,7.17-12,5.39
				C427.46,263.67,424.84,258.35,426.67,253.41z"/>
		</g>
		<path d="M410.88,383.8c-0.85,2.4-2.96,3.67-4.94,2.99c-1.77-0.62-2.82-3.34-2.1-5.48c0.74-2.21,3.05-3.51,5.05-2.85
			C410.95,379.15,411.76,381.31,410.88,383.8z"/>
		<path d="M511.06,339.13c2.27,1.03,3.58,4.75,2.51,7.13c-1.31,2.92-4.47,4.47-6.85,3.37c-2.32-1.06-3.45-4.84-2.25-7.45
			C505.63,339.67,508.91,338.15,511.06,339.13z"/>
		<path d="M503.08,265.27c-0.87,2.42-3.33,4.05-5.18,3.45c-1.84-0.6-2.68-3.49-1.78-6.17c0.75-2.25,3.29-3.94,5.04-3.36
			C503.05,259.82,503.99,262.77,503.08,265.27z"/>
		<path d="M382.11,332.3c0.7-1.79,2.82-2.8,4.51-2.15c1.57,0.6,2.47,2.86,1.81,4.49c-0.69,1.69-2.76,2.66-4.39,2.05
			C382.33,336.05,381.44,334.02,382.11,332.3z"/>
		<g>
			<path class="st3" d="M401.05,305.91c0,0,24.34,6.82,29.67-0.75s3.06-19.2,3.06-19.2s11.02,8.95,20.51,1.81s3.67-17.9,3.67-17.9"
				/>
			<path class="st4" d="M453.99,289.24c4.6,5.4,5.61,10.53,5.66,5.25c0.02-1.69-2.96-8.85-2.21-8.73"/>
			<path class="st5" d="M459.69,281.19c4.75,0.47,7.63,2.48,5.2-0.1c-0.78-0.83-5.57-2.91-5.15-3.2"/>
			<path class="st6" d="M431.8,303.42c6.88,6.01,13.47,7.39,6.68,7.38c-2.18,0-11.35-3.95-11.21-2.98"/>
			<path class="st7" d="M435.17,296.64c4.61,1.93,8.09,1.83,4.8,2.56c-1.06,0.23-6.33-0.53-6.06-0.11"/>
			<path d="M440.01,280.95c-0.07,3.17-0.91,6.04-3.76,7.79c-3,1.84-6.21,1.81-9.45,0.44C428.28,284.16,434.93,280.03,440.01,280.95z
				"/>
		</g>
	</g>
	<path d="M340.01,278.06c-2.44-7.26-2.18-14.2-1.87-21.01c-7.09,4.5-14.08,8.94-21.53,13.67
		C324.51,273.2,332.01,275.55,340.01,278.06z"/>
</g>
<polyline class="st8" points="240.7,285.42 313.9,322.59 347.69,498.28 531.27,498.28 566.18,342.86 "/>
<circle class="st0" cx="354.45" cy="548.96" r="27.08"/>
<circle class="st0" cx="518.88" cy="548.96" r="27.08"/>
<g>
	<line class="st9" x1="437.79" y1="395.49" x2="437.79" y2="448.43"/>
	<polyline class="st9" points="413.01,442.8 437.79,470.39 462.57,442.8 	"/>
</g>
<g>
	<line class="st10" x1="646.49" y1="413.81" x2="773.97" y2="413.81"/>
	<polyline class="st10" points="719.86,473.49 786.32,413.81 719.86,354.14 	"/>
</g>
<path class="st0" d="M148.34,168.86c0,0-27.03-2.25-30.41,22.52s-6.76,101.92-6.76,101.92L51.49,401.43h61.94l1.13,69.83
	c0,0-46.18,63.07-47.3,68.7c-1.13,5.63-1.13,11.26,4.5,16.89c5.63,5.63,19.15,5.63,27.03-4.5c7.88-10.14,18.02-21.4,18.02-21.4
	s0,16.89,0,25.9c0,9.01,4.5,21.4,14.64,21.4s15.77-11.26,15.77-23.65s0-154.29,0-154.29h63.07l-59.69-96.86l13.51-67.57l87.85,59.69
	l21.4,3.38c0,0-92.35-116.57-97.98-122.2S168.62,167.73,148.34,168.86z"/>
<path class="st11" d="M149.45,146.15c-11.5,0-20.71-4.02-27.62-12.06c-6.92-8.04-10.38-18.16-10.38-30.36
	c0-12.25,3.46-22.36,10.38-30.36s16.13-11.99,27.62-11.99c11.45,0,20.62,4,27.52,11.99c6.89,7.99,10.34,18.11,10.34,30.36
	c0,12.2-3.45,22.32-10.34,30.36C170.07,142.13,160.9,146.15,149.45,146.15z"/>
<g>
	<g>
		<path class="st1" d="M1126.57,325.99c3.08,0.7,6.14,2.15,8.79,3.9c4.85,3.21,7.94,7.71,7.33,13.88
			c-0.61,6.1-1.27,12.21-2.27,18.26c-0.58,3.53-1.78,6.97-2.86,10.4c-0.78,2.47-2.44,4.31-4.98,5.12c-1.94,0.62-2.93,2-3.69,3.78
			c-1.91,4.49-3.85,8.97-5.93,13.39c-2.76,5.87-6.1,11.4-10.61,16.12c-1.88,1.97-3.88,3.82-5.86,5.69c-1.6,1.51-1.8,3.17-0.94,5.16
			c1.85,4.31,4.51,8.06,7.75,11.41c4.24,4.39,4.85,8.19,2.13,13.61c-1.42,2.82-6.82,4.8-9.73,3.57c-2.95-1.25-4.88-3.55-6.45-6.21
			c-2.57-4.36-5.15-8.73-7.62-13.15c-0.86-1.54-1.82-1.81-3.41-1.18c-2.65,1.05-5.31,2.13-8.06,2.85
			c-6.37,1.67-12.71,3.89-19.2,4.54c-19.65,1.98-37.59-3.29-53.47-14.94c-12.08-8.87-19.12-20.89-20.59-35.97
			c-0.57-5.85-0.15-11.64,1.21-17.34c0.39-1.63,0.2-2.68-1.51-3.45c-2.65-1.2-5.25-2.55-7.74-4.05c-5.21-3.12-12.45-3.49-17.38-7.02
			c-5.85-4.18-7.13-6.71-9.36-14c-0.07-0.24-2.42-5.31-2.58-5.5c-3.96-4.5-8.3-8.7-11.15-14.41c-6.09,2.43-12.02,4.82-17.98,7.13
			c-0.57,0.22-1.66,0.26-1.89-0.06c-0.65-0.91-0.1-1.58,0.89-2.01c4.54-1.93,9.06-3.92,13.61-5.85c1.31-0.56,2.69-0.96,4.15-1.46
			c-1.41-3.64-2.71-6.99-4.01-10.34c-0.5,0.06-0.82,0.07-1.12,0.14c-5.86,1.36-11.72,2.74-17.59,4.1c-1.22,0.28-2.46,0.59-3.64-1.05
			c6.99-3.23,14.49-3.92,21.51-5.94c-0.2-1.75-0.23-3.36-0.6-4.88c-0.19-0.79-0.84-1.74-1.54-2.08
			c-10.86-5.36-20.86-11.98-29.66-20.33c-3.46-3.28-6.62-6.81-8.75-11.15c-0.9-1.83-0.8-3.43,0.79-4.79
			c2.97-2.55,5.69-5.53,8.99-7.54c7.39-4.52,15.08-8.56,22.64-12.81c2.63-1.48,5.67-2.55,7.79-4.58
			c15.83-15.1,33.28-27.67,53.66-35.96c12.56-5.11,25.57-7.65,39.09-7.74c10.7-0.07,21.21,1.62,31.63,3.81
			c4.82,1.01,9.54,1.48,14.48,0.92c8.83-0.99,17.74-1.16,26.49,0.71c5.74,1.23,11.36,3.02,17,4.66c1.56,0.45,2.39,1.45,1.71,3.33
			c-3.79,10.5-7.97,20.85-13.36,30.64c-1.46,2.65-1.84,4.8,0.32,7.12c0.72,0.78,1.26,1.75,1.77,2.7c0.57,1.04,1.24,1.09,2.33,0.8
			c5.94-1.59,11.9-3.1,17.87-4.54c0.62-0.15,1.38,0.31,2.08,0.49c-0.54,0.57-0.99,1.43-1.65,1.65c-2.65,0.87-5.36,1.52-8.04,2.29
			c-3.51,1.01-7,2.05-10.51,3.08c1,3.23,1.93,6.22,2.88,9.29c4-1.09,7.82-2.22,11.7-3.15c2.64-0.63,5.35-1.01,8.04-1.39
			c0.42-0.06,0.93,0.44,1.39,0.68c-0.31,0.4-0.55,0.96-0.96,1.16c-0.78,0.39-1.65,0.64-2.51,0.85c-4.06,0.99-8.14,1.93-12.2,2.94
			c-1.76,0.43-3.49,0.98-4.85,1.37c0.07,5.62,0.11,10.87,0.26,16.11c0.02,0.65,0.47,1.52,1,1.88c2.55,1.72,4.89,3.59,6.41,6.35
			c2.95,5.38,3.55,11.1,2.02,16.94c-2.27,8.68-6.42,16.35-12.82,22.74c-0.39,0.39-0.78,1.34-0.58,1.67
			c0.83,1.32,1.88,2.49,2.73,3.57C1114.47,327.56,1119.86,324.47,1126.57,325.99z"/>
		<path d="M928.28,283.86c1.18-7.89,2.36-15.75,3.51-23.39c-8.22,1.65-16.55,3.31-24.83,4.97
			C912.52,273.11,920.47,278.49,928.28,283.86z"/>
		<path d="M1126.97,348.66c0.73-1.73-0.59-4.33-2.66-5.23c-2.13-0.93-4.65-0.09-5.5,1.84c-0.88,1.99,0.19,4.04,2.63,5.05
			C1123.8,351.3,1126.16,350.59,1126.97,348.66z"/>
		<path d="M1019.13,392.85c1.32-3.36,5.72-5.07,9.29-3.63c3.54,1.43,5.32,5.49,3.92,8.94c-1.19,2.92-6.12,4.87-9.22,3.64
			C1019.64,400.43,1017.78,396.26,1019.13,392.85z M1024.11,399.23c2.3,0.72,4.81-0.41,5.47-2.46c0.64-1.99-0.84-4.68-2.91-5.3
			c-1.99-0.6-4.55,0.63-5.15,2.47C1020.89,395.88,1022.24,398.64,1024.11,399.23z"/>
		<path d="M1098.96,303.22c-2.97-1.25-4.44-4.85-3.18-7.77c1.33-3.07,4.54-4.46,7.51-3.26c3.12,1.26,4.57,4.61,3.3,7.64
			C1105.48,302.48,1101.46,304.27,1098.96,303.22z M1097.86,296.39c-0.6,1.57,0.47,3.76,2.13,4.35c1.72,0.62,3.82-0.27,4.46-1.89
			c0.67-1.7-0.24-3.72-1.96-4.37C1100.68,293.8,1098.51,294.7,1097.86,296.39z"/>
		<path d="M1110.23,301.58c1.35,0.39,2.39-0.13,2.98-1.47c0.55-1.25-0.08-2.55-1.42-3.04c-1.37-0.51-2.91,0.08-3.35,1.28
			C1108.01,299.56,1108.8,301.06,1110.23,301.58z"/>
		<path d="M975.59,330.27c1.61,0.49,2.99,0.4,3.66-0.98c0.68-1.39-0.1-2.52-1.65-3.33c-1.41-0.74-3.56-0.23-3.93,0.93
			C973.22,328.3,974.04,329.41,975.59,330.27z"/>
		<path d="M968.3,324.7c-1.64-0.69-3.25-0.22-3.73,1.02c-0.47,1.22,0.38,2.83,1.89,3.32c1.66,0.54,3.07,0.29,3.67-1.09
			C970.76,326.51,969.71,325.48,968.3,324.7z"/>
		<path d="M1107.18,291.25c-0.3,1.32,0,2.38,1.38,2.86c1.31,0.46,2.39,0.07,2.92-1.27c0.54-1.37-0.09-2.33-1.36-2.85
			C1108.76,289.45,1107.81,289.99,1107.18,291.25z"/>
		<path d="M1032.16,389.29c2.41,1.05,4.66,0.54,5.12-1.05c0.47-1.61-0.28-3.04-2.14-3.89c-1.96-0.89-3.69-0.73-4.49,1.03
			C1029.89,387.03,1030.52,388.47,1032.16,389.29z"/>
		<path d="M1130.04,340.62c0.47,0.75,0.81,1.93,1.59,2.4c1.13,0.68,2.4,0.25,3.01-1.07c0.58-1.27-0.02-2.3-1.15-2.83
			C1132.24,338.56,1131.17,339.07,1130.04,340.62z"/>
		<path d="M1024.09,382.08c-2.13,1.03-3.89,1.35-4.55,2.32c-1.05,1.54,0.09,3.19,2.1,3.94c1.93,0.72,4.01,0.42,4.34-1.38
			C1026.19,385.83,1025.02,384.34,1024.09,382.08z"/>
		<path d="M1011,389.32c-0.58,1.74,0.24,3.08,2.13,3.85c2.03,0.83,3.71,0.39,4.37-1.35c0.64-1.68-0.43-2.97-2.34-3.72
			C1013.21,387.33,1011.77,387.75,1011,389.32z"/>
		<path d="M960.59,334.25c1.67-0.77,2.93-1.03,3.57-1.74c0.73-0.8-0.49-2.63-1.89-3.03c-1.46-0.42-2.98-0.26-3.17,1.06
			C958.98,331.42,959.86,332.54,960.59,334.25z"/>
		<path d="M1114.77,341.87c0.65-0.38,1.87-0.68,2.33-1.44c0.78-1.29-0.23-2.29-1.4-2.8c-1.18-0.52-2.15,0.08-2.64,1.15
			C1112.49,340.05,1113.16,340.93,1114.77,341.87z"/>
		<path d="M1128.14,334.69c-1.48,0.87-2.66,1.19-3.14,1.94c-0.74,1.16,0.11,2.2,1.23,2.69c1.18,0.52,2.47,0.15,2.79-1.07
			C1129.23,337.42,1128.58,336.35,1128.14,334.69z"/>
		<path d="M1102.28,290.04c1.3,0.44,2.38,0.21,2.86-1.07c0.48-1.28-0.18-2.18-1.4-2.67c-1.19-0.48-2.17-0.07-2.67,1.03
			C1100.49,288.61,1101.21,289.47,1102.28,290.04z"/>
		<path d="M1094.64,292.01c1.44-0.78,2.59-1.03,3.05-1.73c0.71-1.1,0.16-2.42-1.11-2.66c-0.81-0.15-2.17,0.4-2.57,1.07
			C1093.66,289.26,1094.3,290.45,1094.64,292.01z"/>
		<path d="M1009.99,399.92c0.9,1.07,1.67,2.78,2.74,3.06c1.23,0.32,3.35-0.22,3.95-1.07c0.98-1.4-0.3-3.17-2.13-3.66
			c-1.26-0.34-2.75,0.37-4.14,0.61C1010.27,399.21,1010.13,399.56,1009.99,399.92z"/>
		<path d="M1121.07,334.12c-0.72,0.5-1.88,0.9-2.03,1.54c-0.16,0.71,0.38,1.94,1.02,2.38c0.96,0.67,2.28,0.33,2.54-0.93
			c0.17-0.82-0.46-1.79-0.73-2.7C1121.6,334.31,1121.34,334.21,1121.07,334.12z"/>
		<path d="M962.28,335.58c-1.47,0.74-2.93,1.03-3,1.62c-0.09,0.71,0.82,1.96,1.65,2.45c1.13,0.68,2.63,0.44,2.78-0.78
			C963.81,338.1,962.99,337.12,962.28,335.58z"/>
		<g>
			<g>
				<path class="st2" d="M1060.21,252.92c8.7,4.07,12.61,13.44,9.36,22.37c-2.84,7.83-14.44,13.5-23.05,9.7
					c-9.61-4.24-13.81-13.53-9.91-22.89C1039.35,253.06,1052.07,249.11,1060.21,252.92z"/>
			</g>
			<path d="M1042.22,275.87c2.71,1.09,5.99-0.25,7.1-2.91c1.16-2.76-0.26-6.19-3.04-7.35c-2.79-1.17-6.25,0.2-7.4,2.94
				C1037.73,271.3,1039.27,274.67,1042.22,275.87z"/>
		</g>
		<g>
			<path class="st2" d="M1009.07,244.99c12.63,5.15,22.4,22.19,15.25,38.74c-6.7,15.51-22.27,21.84-38.2,15.78
				c-12.38-4.71-21.67-24.43-15.38-37.76C977.25,245.86,993.58,238.68,1009.07,244.99z"/>
			<path d="M1014.06,274.72c-4.85-1.92-10.19,0.59-12.3,5.79c-1.85,4.57,0.63,10.28,5.27,12.11c4.71,1.86,10.12-0.52,12.04-5.3
				C1021.14,282.18,1018.95,276.66,1014.06,274.72z"/>
		</g>
		<path d="M1121.45,350.33c2.35,0.97,4.71,0.26,5.52-1.67c0.73-1.73-0.59-4.33-2.66-5.23c-2.13-0.93-4.65-0.09-5.5,1.84
			C1117.94,347.27,1119.01,349.32,1121.45,350.33z"/>
		<path d="M1021.17,394.8c-0.76,2.38,1.13,5.84,3.61,6.64c3.05,0.98,6.31-0.32,7.09-2.83c0.76-2.43-1.28-5.81-4.03-6.66
			C1025.21,391.13,1021.89,392.55,1021.17,394.8z"/>
		<path d="M971.68,339.41c2.38,0.97,5.24,0.25,6.03-1.54c0.79-1.77-0.8-4.33-3.39-5.45c-2.18-0.95-5.12-0.2-5.87,1.49
			C967.65,335.73,969.21,338.4,971.68,339.41z"/>
		<path d="M1102.48,294.48c-1.8-0.68-3.97,0.22-4.62,1.91c-0.6,1.57,0.47,3.76,2.13,4.35c1.72,0.62,3.82-0.27,4.46-1.89
			C1105.11,297.15,1104.21,295.13,1102.48,294.48z"/>
		<g>
			<path class="st3" d="M1070.19,290.86c0,0-11.24,22.64-20.43,21.53s-16.3-10.59-16.3-10.59s-0.73,14.18-12.4,16.44
				s-15.75-9.26-15.75-9.26"/>
			<path class="st4" d="M1022.35,319c0.93,7.03,4.06,11.21,0.11,7.72c-1.27-1.12-4.59-8.12-5.01-7.49"/>
			<path class="st5" d="M1012.56,317.85c-2.83,3.84-3.27,7.33-3.55,3.79c-0.09-1.14,1.57-6.08,1.07-5.97"/>
			<path class="st6" d="M1047.75,312.03c-0.15,9.13-3.54,14.95,1.01,9.9c1.46-1.62,4.67-11.08,5.3-10.32"/>
			<path class="st7" d="M1040.46,309.99c-1.65,4.71-4.06,7.23-1.31,5.27c0.88-0.63,3.85-5.05,3.97-4.57"/>
			<path d="M1025.57,303.08c2.4,2.07,5.1,3.37,8.3,2.42c3.38-1,5.51-3.4,6.66-6.72C1035.81,296.52,1028.29,298.69,1025.57,303.08z"
				/>
		</g>
	</g>
	<path d="M1100.62,204.6c-8.5,2.36-16.47,4.58-24.57,6.83c5.27,4.32,10.59,8.78,14.35,15.46
		C1093.9,219.26,1097.17,212.12,1100.62,204.6z"/>
</g>
<g>
	<line class="st10" x1="1345.88" y1="413.81" x2="1473.36" y2="413.81"/>
	<polyline class="st10" points="1419.26,473.49 1485.71,413.81 1419.26,354.14 	"/>
</g>
<g>
	<circle class="st12" cx="308.72" cy="537.49" r="65.78"/>
	<polyline class="st13" points="280.98,538.16 302.68,564.4 337.51,512.92 	"/>
</g>
<g>
	<circle class="st12" cx="935.64" cy="537.49" r="65.78"/>
	<polyline class="st13" points="907.9,538.16 929.61,564.4 964.43,512.92 	"/>
</g>
<g>
	<polyline class="st14" points="1537.39,407.72 1707.81,235.87 1878.23,401.99 	"/>
	<path class="st0" d="M1560.3,440.66c0,0,0,120.3,0,122.44c0,2.15-0.72,12.17,10.02,12.17c10.74,0,72.32,0.72,76.62,0.72
		c4.3,0,12.17-2.15,12.17-9.31c0-7.16,1.43-117.43,1.43-121.01c0-3.58-5.01-11.46,9.31-11.46s78.05,0,83.78,0s6.44,1.43,6.44,10.02
		c0,8.59,0,115.28,0,119.58c0,4.3,3.58,12.17,11.46,12.17s75.19-0.72,78.05-0.72c2.86,0,10.74,0,10.74-10.02s0-126.74,0-126.74
		l-150.37-150.37L1560.3,440.66z"/>
</g>
<g>
	<g>
		<path class="st1" d="M1891.54,547.15c2.57,1.83,4.83,4.35,6.6,6.99c3.24,4.83,4.34,10.18,1.39,15.63
			c-2.92,5.39-5.9,10.77-9.15,15.96c-1.9,3.03-4.33,5.74-6.66,8.49c-1.68,1.98-3.92,3.03-6.57,2.8c-2.03-0.18-3.47,0.71-4.86,2.06
			c-3.5,3.4-7.02,6.79-10.64,10.05c-4.82,4.35-10.03,8.15-16.02,10.76c-2.49,1.09-5.05,2.02-7.6,2.98c-2.06,0.77-2.88,2.23-2.86,4.4
			c0.04,4.69,1.04,9.18,2.74,13.52c2.22,5.69,1.31,9.43-3.3,13.37c-2.4,2.05-8.15,1.79-10.35-0.47c-2.23-2.29-3.13-5.17-3.55-8.23
			c-0.69-5.02-1.37-10.04-1.94-15.08c-0.2-1.75-0.98-2.38-2.69-2.41c-2.85-0.05-5.72-0.09-8.53-0.49
			c-6.52-0.92-13.23-1.33-19.46-3.23c-18.89-5.78-33.4-17.57-43.53-34.45c-7.71-12.85-9.56-26.66-5.07-41.13
			c1.74-5.62,4.36-10.79,7.82-15.53c0.99-1.35,1.22-2.39-0.06-3.76c-1.98-2.13-3.85-4.38-5.57-6.73c-3.6-4.89-10.13-8.04-13.31-13.2
			c-3.77-6.12-3.98-8.95-3.22-16.53c0.02-0.25-0.17-5.84-0.25-6.07c-1.91-5.68-4.29-11.23-4.71-17.6
			c-6.56-0.12-12.95-0.21-19.34-0.38c-0.61-0.02-1.63-0.41-1.72-0.79c-0.25-1.09,0.52-1.5,1.6-1.51c4.94-0.03,9.87-0.11,14.81-0.13
			c1.43,0,2.85,0.16,4.39,0.25c0.11-3.9,0.2-7.49,0.3-11.09c-0.48-0.14-0.78-0.25-1.09-0.3c-5.93-1.01-11.87-2.01-17.81-3.02
			c-1.23-0.21-2.49-0.41-2.95-2.38c7.7-0.27,14.88,1.99,22.13,2.84c0.5-1.69,1.09-3.18,1.33-4.73c0.13-0.8-0.1-1.92-0.61-2.51
			c-7.94-9.15-14.6-19.11-19.49-30.22c-1.92-4.37-3.47-8.84-3.76-13.67c-0.12-2.03,0.59-3.47,2.58-4.11
			c3.73-1.21,7.38-2.9,11.21-3.48c8.57-1.31,17.22-2.06,25.83-3.05c3-0.35,6.21-0.16,8.95-1.21c20.43-7.81,41.39-12.64,63.39-12.41
			c13.56,0.14,26.54,2.83,39.04,7.98c9.89,4.07,18.93,9.69,27.69,15.74c4.05,2.8,8.22,5.05,13,6.45c8.53,2.5,16.81,5.79,24.15,10.9
			c4.82,3.35,9.31,7.18,13.88,10.88c1.26,1.02,1.64,2.26,0.28,3.73c-7.56,8.22-15.41,16.14-24.17,23.09
			c-2.37,1.88-3.56,3.71-2.46,6.69c0.37,1,0.49,2.1,0.59,3.17c0.12,1.18,0.72,1.48,1.84,1.64c6.09,0.83,12.17,1.74,18.24,2.72
			c0.63,0.1,1.15,0.82,1.73,1.25c-0.72,0.31-1.47,0.94-2.16,0.88c-2.78-0.22-5.54-0.67-8.31-1c-3.62-0.43-7.25-0.82-10.88-1.22
			c-0.33,3.36-0.63,6.48-0.94,9.68c4.11,0.54,8.08,0.98,12.01,1.62c2.68,0.44,5.32,1.14,7.95,1.82c0.41,0.11,0.68,0.76,1.02,1.16
			c-0.44,0.25-0.87,0.67-1.33,0.7c-0.87,0.06-1.77-0.05-2.64-0.19c-4.13-0.65-8.25-1.37-12.39-2.01c-1.79-0.28-3.6-0.44-5.01-0.61
			c-2.1,5.21-4.1,10.06-5.99,14.96c-0.23,0.6-0.15,1.59,0.2,2.12c1.69,2.57,3.12,5.21,3.45,8.34c0.64,6.1-1.02,11.61-4.68,16.41
			c-5.45,7.12-12.24,12.6-20.62,16.01c-0.51,0.21-1.24,0.94-1.18,1.31c0.25,1.54,0.77,3.03,1.14,4.35
			C1879.78,543.93,1885.95,543.16,1891.54,547.15z"/>
		<path d="M1724.97,431.63c4.14-6.82,8.27-13.61,12.28-20.22c-8.21-1.66-16.54-3.34-24.83-5.02
			C1714.59,415.62,1719.85,423.65,1724.97,431.63z"/>
		<path d="M1883.15,568.23c1.34-1.31,1.13-4.22-0.43-5.85c-1.61-1.68-4.25-1.88-5.78-0.43c-1.58,1.5-1.39,3.8,0.47,5.68
			C1879.2,569.43,1881.65,569.69,1883.15,568.23z"/>
		<path d="M1766.6,567.27c2.52-2.58,7.24-2.47,9.97,0.25c2.71,2.69,2.78,7.12,0.16,9.75c-2.23,2.23-7.53,2.12-9.91-0.21
			C1764.15,574.45,1764.05,569.89,1766.6,567.27z M1768.73,575.08c1.84,1.55,4.6,1.48,6-0.16c1.36-1.59,1.04-4.64-0.63-6.02
			c-1.6-1.32-4.44-1.18-5.71,0.29C1767.05,570.74,1767.23,573.81,1768.73,575.08z"/>
		<path d="M1874.89,515.48c-2.26-2.31-2.22-6.19,0.07-8.4c2.41-2.31,5.91-2.36,8.19-0.1c2.39,2.37,2.43,6.02,0.08,8.32
			C1881.18,517.32,1876.78,517.42,1874.89,515.48z M1876.51,508.75c-1.16,1.21-1.02,3.64,0.28,4.84c1.34,1.23,3.63,1.23,4.84-0.02
			c1.28-1.31,1.22-3.52-0.12-4.79C1880.12,507.46,1877.76,507.45,1876.51,508.75z"/>
		<path d="M1885.91,518.33c1.09,0.88,2.25,0.81,3.32-0.2c0.99-0.94,0.91-2.38-0.13-3.36c-1.07-1-2.72-1.05-3.58-0.11
			C1884.65,515.61,1884.8,517.29,1885.91,518.33z"/>
		<path d="M1750.65,492.72c1.29,1.07,2.6,1.52,3.75,0.51c1.16-1.02,0.88-2.37-0.23-3.71c-1.02-1.23-3.19-1.59-3.99-0.66
			C1749.23,489.99,1749.56,491.32,1750.65,492.72z"/>
		<path d="M1746.08,484.77c-1.24-1.27-2.91-1.46-3.84-0.5c-0.91,0.94-0.75,2.75,0.46,3.79c1.32,1.14,2.72,1.45,3.81,0.42
			C1747.66,487.38,1747.08,486.03,1746.08,484.77z"/>
		<path d="M1887.09,507.62c-0.79,1.1-0.93,2.2,0.16,3.17c1.04,0.93,2.18,0.99,3.18-0.04c1.03-1.06,0.82-2.18-0.15-3.16
			C1889.25,506.57,1888.17,506.71,1887.09,507.62z"/>
		<path d="M1780,569.02c1.82,1.9,4.09,2.3,5.13,1.02c1.06-1.31,0.92-2.91-0.47-4.41c-1.46-1.58-3.12-2.1-4.54-0.79
			C1778.78,566.07,1778.8,567.63,1780,569.02z"/>
		<path d="M1889.09,561.99c0.14,0.87,0,2.1,0.54,2.83c0.77,1.07,2.12,1.16,3.18,0.18c1.03-0.94,0.88-2.13,0.03-3.05
			C1891.91,560.94,1890.73,560.99,1889.09,561.99z"/>
		<path d="M1775.34,559.26c-2.37,0.13-4.11-0.26-5.09,0.38c-1.57,1.01-1.15,2.98,0.41,4.45c1.5,1.41,3.53,1.94,4.54,0.41
			C1775.83,563.52,1775.33,561.7,1775.34,559.26z"/>
		<path d="M1760.47,560.87c-1.21,1.38-0.97,2.93,0.47,4.38c1.55,1.55,3.27,1.79,4.56,0.45c1.24-1.3,0.75-2.9-0.72-4.33
			C1763.28,559.89,1761.79,559.72,1760.47,560.87z"/>
		<path d="M1735.28,490.59c1.84-0.07,3.1,0.18,3.96-0.22c0.99-0.46,0.57-2.61-0.57-3.52c-1.19-0.95-2.65-1.39-3.33-0.25
			C1734.89,487.36,1735.27,488.73,1735.28,490.59z"/>
		<path d="M1874.52,557.24c0.75-0.1,1.99,0.09,2.7-0.43c1.22-0.89,0.68-2.19-0.2-3.12c-0.89-0.94-2.01-0.76-2.88,0.04
			C1873.12,554.68,1873.4,555.75,1874.52,557.24z"/>
		<path d="M1889.62,555.79c-1.71,0.23-2.91,0.07-3.65,0.58c-1.13,0.79-0.75,2.07,0.09,2.96c0.89,0.93,2.22,1.09,2.99,0.09
			C1889.58,558.72,1889.39,557.49,1889.62,555.79z"/>
		<path d="M1883.04,504.61c1.03,0.91,2.12,1.12,3.05,0.12c0.94-0.99,0.68-2.09-0.25-3c-0.91-0.9-1.98-0.91-2.86-0.08
			C1881.95,502.6,1882.28,503.68,1883.04,504.61z"/>
		<path d="M1875.24,503.47c1.63-0.16,2.79,0.05,3.48-0.42c1.08-0.74,1.09-2.17,0.01-2.88c-0.68-0.45-2.15-0.47-2.78-0.01
			C1875.39,500.56,1875.52,501.9,1875.24,503.47z"/>
		<path d="M1755.44,570.25c0.42,1.34,0.47,3.21,1.34,3.88c1.01,0.78,3.18,1.09,4.06,0.54c1.45-0.91,0.95-3.04-0.55-4.2
			c-1.03-0.8-2.68-0.72-4.05-1.04C1755.98,569.7,1755.71,569.98,1755.44,570.25z"/>
		<path d="M1883.33,552.53c-0.85,0.19-2.09,0.11-2.46,0.64c-0.42,0.59-0.4,1.94,0.01,2.59c0.63,0.99,1.97,1.18,2.7,0.12
			c0.47-0.69,0.27-1.83,0.37-2.77C1883.74,552.91,1883.54,552.72,1883.33,552.53z"/>
		<path d="M1736.33,492.47c-1.64,0.11-3.1-0.18-3.4,0.34c-0.35,0.62,0,2.12,0.58,2.9c0.78,1.06,2.25,1.42,2.87,0.35
			C1736.77,495.39,1736.38,494.16,1736.33,492.47z"/>
		<g>
			<g>
				<path class="st2" d="M1858.6,454.11c6.45,7.12,6.43,17.27-0.02,24.25c-5.65,6.12-18.54,6.87-25.01,0.04
					c-7.23-7.63-7.5-17.82-0.29-24.94C1839.31,446.17,1852.57,447.45,1858.6,454.11z"/>
			</g>
			<path d="M1833.14,468.32c2.07,2.06,5.62,2.09,7.68,0.07c2.13-2.1,2.15-5.81,0.04-7.96c-2.12-2.16-5.84-2.23-7.96-0.15
				C1830.76,462.36,1830.88,466.07,1833.14,468.32z"/>
		</g>
		<g>
			<path class="st2" d="M1814.51,427.02c9.66,9.63,12.08,29.13-0.91,41.63c-12.18,11.71-28.98,11.53-41.33-0.21
				c-9.59-9.13-10.54-30.91,0.42-40.77C1784.83,415.52,1802.67,415.21,1814.51,427.02z"/>
			<path d="M1807.61,456.37c-3.73-3.65-9.63-3.39-13.58,0.59c-3.48,3.5-3.4,9.72,0.17,13.21c3.62,3.54,9.53,3.43,13.15-0.23
				C1811.25,465.99,1811.37,460.05,1807.61,456.37z"/>
		</g>
		<path d="M1877.41,567.63c1.79,1.81,4.24,2.06,5.74,0.6c1.34-1.31,1.13-4.22-0.43-5.85c-1.61-1.68-4.25-1.88-5.78-0.43
			C1875.36,563.45,1875.55,565.75,1877.41,567.63z"/>
		<path d="M1767.74,569.86c-1.62,1.9-1.22,5.82,0.77,7.52c2.43,2.08,5.94,2.14,7.64,0.13c1.64-1.95,1.06-5.85-1.14-7.7
			C1772.88,568.03,1769.27,568.06,1767.74,569.86z"/>
		<path d="M1743.51,499.63c1.82,1.82,4.73,2.25,6.16,0.91c1.41-1.32,0.93-4.3-1.02-6.34c-1.64-1.72-4.65-2.16-5.99-0.89
			C1741.22,494.69,1741.63,497.75,1743.51,499.63z"/>
		<path d="M1881.51,508.78c-1.39-1.32-3.75-1.34-5-0.03c-1.16,1.21-1.02,3.64,0.28,4.84c1.34,1.23,3.63,1.23,4.84-0.02
			C1882.91,512.27,1882.85,510.05,1881.51,508.78z"/>
		<g>
			<path class="st3" d="M1853.14,492.96c0,0-19.12,16.54-27.17,11.95c-8.05-4.58-10.94-16.07-10.94-16.07s-6.16,12.79-17.79,10.37
				s-10.94-14.63-10.94-14.63"/>
			<path class="st4" d="M1798.14,500.41c-1.86,6.84-0.59,11.91-2.89,7.16c-0.74-1.52-1.09-9.27-1.72-8.84"/>
			<path class="st5" d="M1789.55,495.56c-4.1,2.45-5.85,5.5-4.74,2.12c0.35-1.08,3.8-5,3.29-5.09"/>
			<path class="st6" d="M1824.25,503.8c-3.67,8.37-9.05,12.42-2.9,9.52c1.97-0.93,8.59-8.41,8.88-7.47"/>
			<path class="st7" d="M1818.32,499.1c-3.35,3.7-6.54,5.1-3.25,4.36c1.05-0.24,5.5-3.17,5.43-2.68"/>
			<path d="M1807.26,486.97c1.41,2.84,3.4,5.08,6.72,5.44c3.5,0.38,6.39-1.01,8.74-3.62
				C1819.24,484.88,1811.47,483.97,1807.26,486.97z"/>
		</g>
	</g>
	<path d="M1914.55,425.18c-8.75-1.11-16.96-2.15-25.3-3.2c3.18,6.02,6.37,12.19,7.26,19.8
		C1902.69,436.1,1908.47,430.77,1914.55,425.18z"/>
</g>
<g>
	<line class="st15" x1="1644.15" y1="403.98" x2="1670.01" y2="410.46"/>
	<line class="st15" x1="1664.83" y1="366.51" x2="1682.02" y2="386.89"/>
	<line class="st15" x1="1691.31" y1="354.76" x2="1700.12" y2="379.93"/>
</g>
<g>
	<line class="st16" x1="1942.83" y1="369.72" x2="1931.15" y2="398.89"/>
	<line class="st16" x1="1983.3" y1="399.81" x2="1956.77" y2="416.65"/>
	<line class="st16" x1="1992.82" y1="432.6" x2="1962.03" y2="438.9"/>
</g>
<g>
	<line class="st16" x1="1963.28" y1="615.23" x2="1925.39" y2="599.99"/>
	<line class="st16" x1="1924.08" y1="667.76" x2="1902.25" y2="633.24"/>
	<line class="st16" x1="1881.45" y1="680.05" x2="1873.34" y2="640.02"/>
</g>
</svg>
